<svg width="12" height="23" viewBox="0 0 12 23" fill="none" xmlns="http://www.w3.org/2000/svg">
<path d="M2.41645 22.2925C2.05624 22.2932 1.70715 22.1677 1.42978 21.9379C1.27368 21.8085 1.14464 21.6495 1.05005 21.4701C0.955468 21.2908 0.897198 21.0945 0.878581 20.8926C0.859964 20.6907 0.881366 20.4871 0.941559 20.2934C1.00175 20.0998 1.09956 19.9199 1.22937 19.7641L8.13603 11.5008L1.47603 3.22205C1.34797 3.06436 1.25234 2.88291 1.19463 2.68814C1.13693 2.49337 1.11828 2.28911 1.13977 2.08711C1.16126 1.8851 1.22246 1.68934 1.31985 1.51107C1.41725 1.33279 1.54891 1.17553 1.70728 1.0483C1.86679 0.907955 2.05359 0.802093 2.25595 0.73736C2.45832 0.672627 2.67188 0.650421 2.88323 0.672135C3.09458 0.69385 3.29916 0.759015 3.48413 0.863543C3.66911 0.968071 3.83048 1.1097 3.95812 1.27955L11.4044 10.5296C11.6311 10.8054 11.7551 11.1514 11.7551 11.5085C11.7551 11.8656 11.6311 12.2116 11.4044 12.4875L3.69603 21.7375C3.54138 21.924 3.34492 22.0715 3.12259 22.1679C2.90027 22.2644 2.65835 22.307 2.41645 22.2925Z" fill="#8893CE"/>
</svg>
